<svg viewBox="0 0 1826 1028" xmlns="http://www.w3.org/2000/svg"><g id="a"></g><g id="b"><g id="c"><g><path fill="#e8f2fa" d="M92.84,1021.46s-192.59-239.8-22.99-449.61c136.84-169.29,267.32-27.27,337.01-243.47C487.45,78.36,793.33-96.07,1046.56,58.01c253.23,154.08,203.65,211.63,425.25,201.57,221.61-10.07,230.25,194.81,234.06,298.18,3.81,103.37,230.32,158.62,51.39,464.96l-1664.43-1.25Z"></path><path fill="#dceaff" d="M112.11,825.04c-21.89-73.48,91.17-121.17,91.17-121.17,0,0,135.41,64,156.97,53.32,21.57-10.68-105.55-78.36-105.55-78.36,36.33-29.67,165.17-45.67,165.17-45.67,0,0,71.6,132.12,89.99,116.22,18.39-15.9-69.11-113.6-69.11-113.6,44.61-13.17,107.38,9.28,107.38,9.28,88.98,45.36,28.69,162.5,28.69,162.5,0,0,25.76,45.23,82.96,78.71h0s11.64,5.47,27.38,17.45l-10.21,6.79c-2.58-2.31-5.18-4.47-7.81-6.45-.01-.02-.03-.03-.05-.04-.04-.03-.08-.06-.11-.09-1.7-1.19-4.14-2.86-7.13-4.89h-.01s-.01,0-.01-.02c-7.01-4.31-11.98-7.63-15.39-10.15-.01,0-.02-.02-.03-.03-21.55-13.83-50.91-31-63.22-30.5,0,0,.12-2.41-.79-6.35,.25,2.03,.52,4.14,.79,6.35,6.35,50.8-77.09,115.47-132.15,137.42-55.06,21.95-42.57-6.54-30.52-47.29,12.04-40.76,70.73-71.16,81.4-91.1,10.67-19.94-18.61-13.3-49.49,10.91-30.88,24.21-26.46,68.96-75.73,109.07-49.27,40.11-151.98-36.47-151.98-36.47,43.36-12.34,95.59-76.42,90.14-91.14-5.45-14.72-100.81,50.54-118.17,56.59-17.37,6.05-62.66-7.85-84.55-81.32Z"></path><path fill="#dceaff" d="M1495.66,373.9c-29.36-61.88-131.01-19.52-131.01-19.52,0,0-49.92,129.33-70.24,136.38-20.33,7.06,22.03-119.28,22.03-119.28-41.17,4.3-134.26,77.45-134.26,77.45,0,0,31.88,132.16,10.52,133.77-21.36,1.61-22.52-118.53-22.52-118.53-36.76,20.38-64.18,75.64-64.18,75.64-30.85,87.13,77.74,124.05,77.74,124.05,0,0,10.1,46.05-7.16,104.87h0s-4.31,11.09-7.42,29.07l10.66-2.21c.3-3.17,.71-6.26,1.25-9.25,0-.02,0-.04,.01-.05,0-.04,.02-.09,.02-.13,.4-1.87,.99-4.54,1.73-7.8h0s0-.02,0-.03c1.99-7.34,3.25-12.72,3.97-16.56,0-.01,0-.02,0-.04,5.78-22.95,14.66-53.12,22.94-60.79,0,0-1.51-1.49-3.25-4.64,1.04,1.48,2.12,3.02,3.25,4.64,26,37.08,118.5,24.95,167.24,3.49,48.74-21.45,23.75-31.84-8.24-50.48-31.98-18.64-88.09-.32-106.84-6.34-18.75-6.02,4.19-20.7,38.59-25.01,34.39-4.31,58.06,27.59,113.82,21.67,55.76-5.92,77-122.21,77-122.21-35.45,20.11-107.34,12.39-112.54-.7-5.19-13.08,95.39-32.56,110.24-39.89,14.86-7.33,36.01-45.72,6.65-107.59Z"></path><path fill="#dceaff" d="M1703.94,863.52c14.97-49.91-61.82-82.47-61.82-82.47,0,0-92.11,43.32-106.75,36.03-14.65-7.29,71.83-53.12,71.83-53.12-24.65-20.21-112.2-31.25-112.2-31.25,0,0-48.82,89.7-61.3,78.87-12.48-10.83,47.11-77.12,47.11-77.12-30.3-9.01-72.99,6.16-72.99,6.16-60.53,30.71-37.26,141.11-76.18,163.79h0s-7.92,3.7-18.63,11.82l6.93,4.63c1.75-1.57,3.53-3.03,5.32-4.37,0-.01,.02-.02,.03-.02,.03-.02,.05-.04,.08-.06,1.16-.8,2.82-1.94,4.85-3.32h0s0,0,.01-.01c4.77-2.92,8.15-5.17,10.47-6.88,0,0,.01-.01,.02-.02,14.66-9.37,43.2-22.15,43.01-20.65-4.38,34.52,52.26,78.58,89.65,93.57,37.39,14.99,28.94-4.39,20.8-32.1-8.14-27.72-47.98-48.46-55.21-62.02-7.23-13.57,12.67-9.01,33.62,7.48,20.96,16.49,17.9,46.9,51.34,74.23,33.44,27.33,103.34-24.58,103.34-24.58-29.46-8.44-64.87-52.07-61.16-62.06,3.72-10,68.45,34.49,80.25,38.62,11.8,4.13,42.59-5.25,57.56-55.16Z"></path><path fill="#ffae73" d="M509.18,660.51s17.22,74.52,34.13,89.41c10.16,8.95,40.38,29.5,40.38,29.5l-12.57,4.77s-41.91-14.8-51.3-26.34c-9.38-11.54-35.08-69.35-35.08-69.35l24.43-28Z"></path><g><path opacity=".5" fill="#bfdcff" d="M1063.18,511.72s6.1-127.28,63-207.07c7.56-10.6,23.72-5.36,24.32,7.85,.01,.22,.02,.44,.03,.67,.68,22.58-62.32,122.56-87.34,198.55Z"></path><path opacity=".5" fill="#bfdcff" d="M1058.04,548.4s51.25-162.23,151.94-239.6c6.14-4.72,14.94-3.8,19.67,2.44,3.08,4.06,4.78,10.64,2.32,21.27-6.56,28.36-117.84,130.24-173.94,215.88Z"></path></g><path fill="#c7e0ff" d="M556.69,262.88c19.55-49.29,100.01-22.17,100.01-22.17,0,0,44.91,96.96,60.93,101.3,16.02,4.33-22.92-90.74-22.92-90.74,31.94,1.08,107.34,52.39,107.34,52.39,0,0-17.99,103.6-1.45,103.67,16.55,.07,11.46-92.58,11.46-92.58,29.35,13.71,53.23,54.81,53.23,54.81,28.11,65.48-53.74,99.84-53.74,99.84,0,0-5.49,36.04,10.74,80.44h0s3.87,8.32,7.17,22l-8.32-1.13c-.39-2.43-.86-4.78-1.42-7.06,0-.02,0-.03-.01-.04,0-.03-.02-.07-.03-.1-.4-1.42-.99-3.45-1.72-5.92h0s0-.02,0-.02c-1.9-5.55-3.14-9.63-3.88-12.55,0,0,0-.02,0-.03-5.6-17.37-13.94-40.15-20.71-45.6,0,0,1.09-1.23,2.28-3.75-.73,1.2-1.48,2.44-2.28,3.75-18.2,30-90.1,25.68-128.73,11.8-38.64-13.88-19.89-23.25,3.84-39.36,23.72-16.11,67.88-5.04,82.03-10.7,14.15-5.66-4.26-15.72-30.99-17.18-26.72-1.45-43.38,24.43-86.65,22.9-43.27-1.53-65.43-90-65.43-90,28.33,13.57,83.35,3.7,86.71-6.66,3.35-10.37-75.14-19.91-86.96-24.75-11.82-4.85-30.03-33.28-10.48-82.57Z"></path><path fill="#f6fbff" d="M770.2,127.29s13.49-31.41,45.74-27.92c0,0,46.83-52.34,96.76-6.98,0,0,53.08-11.24,92.39,9.73,26.21,13.98,34.86,28.65,34.86,28.65l-269.75-3.49Z"></path><path fill="#f6fbff" d="M970.83,213.46s7.83-19.15,26.57-17.02c0,0,27.2-31.92,56.2-4.26,0,0,30.83-6.85,53.66,5.93,15.22,8.53,20.25,17.47,20.25,17.47l-156.67-2.13Z"></path><path fill="#f6fbff" d="M389.85,474.57s9.15-25.68,31.02-22.82c0,0,31.75-42.79,65.61-5.71,0,0,35.99-9.19,62.65,7.96,17.77,11.43,23.64,23.42,23.64,23.42l-182.92-2.85Z"></path><path fill="#ff912b" d="M1146.78,547.6h-448.76c-9.93,0-15.74-11.7-10.03-20.2l94.66-140.86c2.3-3.42,6.04-5.45,10.03-5.45h253.86c3.88,0,7.52,1.92,9.84,5.17l100.25,140.86c6.02,8.46,.25,20.48-9.84,20.48Z"></path><path fill="#a8cfff" d="M1360.11,857.73H487.38c-11.46,0-18.17-13.5-11.58-23.31l89.18-132.71c2.65-3.94,6.97-6.29,11.58-6.29h689.12c4.47,0,8.68,2.21,11.35,5.96l94.44,132.71c6.95,9.76,.28,23.63-11.35,23.63Z"></path><path fill="#c2dbff" d="M363.14,984.56l78.7-117.13c4.09-6.08,10.75-9.7,17.85-9.7h905.85c6.9,0,13.39,3.41,17.51,9.2l83.35,117.13c10.71,15.05,.44,36.44-17.51,36.44H380.99c-17.67,0-28.01-20.82-17.85-35.94Z"></path><g><polygon fill="#e8f2fa" points="514.7 879.15 523.78 999.08 584.47 999.08 593.07 879.15 514.7 879.15"></polygon><path fill="#7798f8" d="M520.75,898.81l8.28,94.27h49.7l8.28-94.27s-13.06-3-36.32,0c-23.26,3-20.39-3-29.95,0Z"></path><path fill="#fff" d="M537.84,943.89c0-9.26,16.04-30.33,16.04-30.33,0,0,16.04,21.06,16.04,30.33s-7.18,16.77-16.04,16.77-16.04-7.51-16.04-16.77Z"></path></g><g><path fill="#ff912b" d="M1272.51,932.18c0-18.61-14.48-33.76-32.29-33.76s-32.29,15.14-32.29,33.76c0,16.78,11.76,30.73,27.12,33.32v4.25h-10.51c-2.85,0-5.17,2.42-5.17,5.41s2.32,5.41,5.17,5.41h10.51v9.22c0,2.98,2.32,5.4,5.17,5.4s5.17-2.42,5.17-5.4v-9.22h10.25c2.85,0,5.17-2.43,5.17-5.41s-2.32-5.41-5.17-5.41h-10.25v-4.25c15.35-2.59,27.12-16.55,27.12-33.32Zm-54.23,0c0-12.65,9.85-22.95,21.95-22.95s21.95,10.3,21.95,22.95-9.85,22.95-21.95,22.95-21.95-10.29-21.95-22.95Z"></path><path fill="#87b1ff" d="M1359.03,898.41l-1.83-15.85c-.17-1.44-.89-2.77-1.99-3.65-1.1-.88-2.51-1.26-3.89-1.05l-18.05,2.79c-1.37,.21-2.57,.97-3.39,2.12-.82,1.16-1.17,2.58-.96,4.01,.42,2.95,3.04,4.99,5.87,4.56l3.52-.54-8.74,10.76c-5.76-3.65-12.46-5.33-19.31-4.75-8.59,.73-16.4,4.92-21.98,11.8-5.58,6.87-8.27,15.61-7.57,24.6,.7,8.99,4.71,17.15,11.28,22.99,5.83,5.18,13.23,8.03,20.85,8.03,.88,0,1.79-.04,2.68-.11,8.59-.73,16.4-4.92,21.98-11.8,5.58-6.88,8.27-15.61,7.57-24.6-.56-7.17-3.23-13.8-7.61-19.16l10.81-13.31,.52,4.46c.31,2.71,2.52,4.76,5.13,4.76h0c.21,0,.42-.01,.62-.04,1.37-.17,2.6-.89,3.45-2.03,.85-1.14,1.23-2.55,1.07-3.98Zm-24.28,30.18c.48,6.11-1.35,12.05-5.14,16.72-3.79,4.67-9.1,7.52-14.94,8.02-5.84,.49-11.52-1.41-15.99-5.38-4.47-3.97-7.19-9.52-7.67-15.63-.48-6.11,1.35-12.05,5.14-16.72,3.8-4.67,9.1-7.52,14.94-8.02,.61-.05,1.22-.08,1.83-.08,5.25,0,10.14,1.89,14.17,5.46,4.47,3.97,7.19,9.52,7.67,15.63Z"></path></g><g><polygon fill="#ff7b35" points="1166.91 728.59 1242.22 728.59 1198.99 774.25 1123.69 774.25 1166.91 728.59 1166.91 728.59"></polygon><polygon fill="#ffd89b" points="1171.02 733.04 1132.05 774.25 1132.05 823.49 1275.54 823.49 1275.54 763.3 1171.02 733.04 1171.02 733.04"></polygon><polygon fill="#f8c585" points="1275.54 823.49 1210.03 823.49 1210.03 764.67 1275.54 764.67 1275.54 823.49 1275.54 823.49"></polygon><polygon fill="#ff7b35" points="1242.12 728.59 1166.81 728.59 1210.03 774.25 1285.34 774.25 1242.12 728.59 1242.12 728.59"></polygon><polygon fill="#ffd89b" points="1219.62 732.17 1228.02 740.96 1237.14 740.96 1237.14 722.76 1220.01 722.76 1219.62 732.17 1219.62 732.17"></polygon><polygon fill="#f8c585" points="1238.7 720.98 1218.9 720.98 1218.9 724.24 1238.7 724.24 1238.7 720.98 1238.7 720.98"></polygon><g><path fill="#f8c585" d="M1165.34,765.36h3.59c5.15,0,9.33,4.18,9.33,9.33v29.89h-22.56v-29.58c0-5.32,4.32-9.64,9.64-9.64Z"></path><path fill="#ff912b" d="M1168.01,764.67h-1.72c-6.2,0-11.25,5.28-11.25,11.76v28.83h23.88v-29.19c0-6.29-4.89-11.4-10.91-11.4Zm-1.72,1.38h1.72c5.29,0,9.59,4.5,9.59,10.03v.37h-21.25c0-5.74,4.46-10.4,9.93-10.4Zm-9.93,12.13h9.55v25.72h-9.55v-25.72Zm11.24,25.72v-25.72h10.01v25.72h-10.01Z"></path></g></g><g><path fill="#ff912b" d="M786.05,731.45c-2.23,.87-3.66,2.89-3.66,5.11v49.28c0,10.08,4.58,19.52,12.25,25.27l27.68,18.55c1.84,1.23,4.34,1.23,6.19,0l27.68-18.55c7.67-5.75,12.25-15.19,12.25-25.27v-49.15c0-2.29-1.53-4.34-3.85-5.18-33.63-12.04-47.11-12.36-78.54-.06h0Z"></path><path fill="#ff7b35" d="M864.59,731.51c-16.37-5.86-27.97-8.94-39.18-9.14v108.21c1.09,0,2.17-.31,3.09-.93l27.68-18.55c7.67-5.75,12.25-15.19,12.25-25.27v-49.15c0-2.28-1.53-4.34-3.85-5.17h0Z"></path><g><path fill="#ffd89b" d="M828.04,766.84h-6.3c-5.65,0-10.24-4.8-10.24-10.71v-1.28c0-5.91,4.59-10.71,10.24-10.71h6.3c5.65,0,10.24,4.8,10.24,10.71v1.28c0,5.9-4.59,10.71-10.24,10.71Zm-6.3-18.42c-3.39,0-6.15,2.88-6.15,6.43v1.28c0,3.54,2.76,6.43,6.15,6.43h6.3c3.39,0,6.15-2.88,6.15-6.43v-1.28c0-3.55-2.76-6.43-6.15-6.43h-6.3Z"></path><path fill="#ffd89b" d="M808.04,758.01h33.19c2.92,0,5.3,2.37,5.3,5.3v16.09c0,9.58-7.78,17.36-17.36,17.36h-6.78c-10.2,0-18.48-8.28-18.48-18.48v-16.13c0-2.28,1.85-4.13,4.13-4.13Z"></path><g><path fill="#ff7b35" d="M830.78,769.64c0,3.21-2.49,5.81-5.56,5.81s-5.56-2.6-5.56-5.81,2.49-5.81,5.56-5.81,5.56,2.6,5.56,5.81Z"></path><path fill="#ff7b35" d="M825.22,772.35h0c.66,0,1.2,.57,1.2,1.26v9.68c0,.69-.54,1.26-1.2,1.26h0c-.66,0-1.2-.57-1.2-1.26v-9.68c0-.69,.54-1.26,1.2-1.26Z"></path></g></g></g><g><path fill="#87b1ff" d="M638.23,681.25l84.2-125.3c3.52-5.23,9.25-8.35,15.36-8.35h477.59c5.93,0,11.52,2.93,15.06,7.91l84.85,119.23c6.56,9.22,.27,22.32-10.72,22.32H646.09c-7.78,0-12.33-9.16-7.86-15.82Z"></path><g><path fill="#ff7b35" d="M1002.78,575.85c-23.85-21.62-42.83,14.99-42.83,14.99,0,0-31.01-26.13-45.05,3.43-14.04,29.56,58.28,65.63,58.28,65.63,0,0,53.45-62.43,29.6-84.04Z"></path><path fill="#ffd89b" d="M1046.04,630.4c-5.32-24.54-32.79-11.01-32.79-11.01,0,0-7.77-30.69-29.16-19.16-21.39,11.53,7.48,67.84,7.48,67.84,0,0,59.79-13.13,54.47-37.67Z"></path></g><g><g><ellipse fill="#ff7b35" ry="19.06" rx="18.22" cy="612.99" cx="821.89"></ellipse><path fill="#ff7b35" d="M795.86,661.85h52.06s-1.31-29.81-26.03-29.81-26.03,29.81-26.03,29.81Z"></path></g><g><path fill="#ff912b" d="M775.84,604.99c0-12.25-9.49-22.18-21.21-22.18s-21.21,9.93-21.21,22.18,9.49,22.18,21.21,22.18,21.21-9.93,21.21-22.18Z"></path><path fill="#ff912b" d="M724.34,661.85h60.59s-1.52-34.69-30.3-34.69-30.29,34.69-30.29,34.69Z"></path></g><g><path fill="#ffd89b" d="M801.49,627.74c0-7.35-5.7-13.3-12.72-13.3s-12.72,5.96-12.72,13.3,5.7,13.3,12.72,13.3,12.72-5.96,12.72-13.3Z"></path><path fill="#ffd89b" d="M770.59,661.85h36.35s-.91-20.81-18.17-20.81-18.17,20.81-18.17,20.81Z"></path></g></g><g><g><path fill="#ff7b35" d="M1213.5,604.99c0-12.25-9.49-22.18-21.21-22.18s-21.21,9.93-21.21,22.18,9.49,22.18,21.21,22.18,21.21-9.93,21.21-22.18Z"></path><path fill="#ff7b35" d="M1162,661.85h60.59s-1.52-34.69-30.3-34.69-30.29,34.69-30.29,34.69Z"></path></g><g><path fill="#ffd89b" d="M1162,604.99c0-12.25-9.5-22.18-21.21-22.18s-21.21,9.93-21.21,22.18,9.49,22.18,21.21,22.18,21.21-9.93,21.21-22.18Z"></path><path fill="#ffd89b" d="M1110.5,661.85h60.59s-1.52-34.69-30.3-34.69-30.29,34.69-30.29,34.69Z"></path></g></g></g><g><path fill="#ff7b35" d="M823.24,370.13l116.72-173.7c2.61-3.88,8.08-3.96,10.78-.15l123.61,173.7c3.27,4.59,.13,11.11-5.34,11.11h-240.33c-5.39,0-8.54-6.35-5.45-10.96Z"></path><g><path fill="#ffd89b" d="M924.84,285.26c0-12.7,9.85-23,21.99-23s21.99,10.3,21.99,23-9.85,23-21.99,23-21.99-10.3-21.99-23Z"></path><path fill="#ffd89b" d="M946.83,308.25c-21.25,0-38.48,18.02-38.48,40.24h76.97c0-22.23-17.23-40.24-38.48-40.24Z"></path></g></g><g><path opacity=".7" fill="#fa6319" d="M1003.82,467.97s-32.28,10.53-38.02,44.6l12.87-6.1,5.9,12.24s14.19-32.17,27.51-32.99l-8.26-17.76Z"></path><path opacity=".7" fill="#fa6319" d="M1017.67,468.4s32.67,9.13,39.74,42.93l-13.09-5.54-5.41,12.48s-15.44-31.53-28.79-31.78l7.55-18.1Z"></path><ellipse fill="#ffd89b" ry="39.24" rx="37.53" cy="454.1" cx="1010.3"></ellipse><path fill="#ff912b" d="M1010.3,488.7c-18.25,0-33.09-15.52-33.09-34.6s14.84-34.6,33.09-34.6,33.09,15.52,33.09,34.6-14.84,34.6-33.09,34.6Zm0-65.01c-16.03,0-29.08,13.64-29.08,30.4s13.04,30.41,29.08,30.41,29.08-13.64,29.08-30.41-13.04-30.4-29.08-30.4Z"></path><polygon fill="#ff912b" points="1016.94 444.28 1031.86 446.41 1021.17 457.49 1023.84 472.98 1010.46 465.77 997.2 473.22 999.61 457.68 988.75 446.79 1003.62 444.4 1010.17 430.23 1016.94 444.28"></polygon></g><g><path fill="#ffd89b" d="M864.01,517.09h-29.41c0-2.26,.87-4.3,2.29-5.78,1.42-1.48,3.37-2.39,5.53-2.39,1.9,0,3.44-1.61,3.44-3.6v-13.76h6.89v13.76c0,.99,.39,1.9,1.01,2.55,.62,.65,1.49,1.06,2.44,1.06,2.16,0,4.11,.91,5.53,2.39,1.41,1.48,2.29,3.52,2.29,5.78Z"></path><path fill="#ffd89b" d="M889.04,411.6l-4.14,33.99c0,14.31-7.57,25.96-17.37,32.73h0c-3.34,2.31-6.93,4.05-10.57,5.13-3.01,.9-5.14,4.23-5.14,8.08v.81c0,2.39,0,4.39,0,4.39h-5.01s0-2.02,0-4.42c0-4.24-2.29-7.96-5.58-9.02-14.06-4.51-26.6-18.75-26.6-37.69l-3.54-33.99h77.97Z"></path><path fill="#ffd89b" d="M821.39,466.78c-3.55-9.51-10.25-11.68-17.33-13.98-5.67-1.84-11.52-3.74-15.81-9.38-4.75-6.25-5.73-15.08-2.45-21.96,2.5-5.24,6.92-8.15,12.13-8,7.4,.21,13.39,5.89,17.32,16.42,2.81,7.54,3.61,14.91,3.65,15.22l-4.28,.49c-.03-.27-3.05-27.24-16.8-27.63-4.75-.14-7.15,3.4-8.16,5.51-2.51,5.26-1.71,12.31,1.96,17.14,3.46,4.55,8.44,6.16,13.71,7.88,7.39,2.4,15.76,5.11,20.07,16.64l-4.01,1.64Z"></path><path fill="#ffd89b" d="M878.13,466.78c3.55-9.51,10.25-11.68,17.33-13.98,5.67-1.84,11.52-3.74,15.81-9.38,4.75-6.25,5.73-15.08,2.45-21.96-2.5-5.24-6.92-8.15-12.13-8-7.4,.21-13.39,5.89-17.32,16.42-2.81,7.54-3.61,14.91-3.64,15.22l4.28,.49c.03-.27,3.05-27.24,16.8-27.63,4.75-.14,7.15,3.4,8.16,5.51,2.51,5.26,1.71,12.31-1.96,17.14-3.46,4.55-8.44,6.16-13.71,7.88-7.39,2.4-15.76,5.12-20.07,16.64l4.01,1.64Z"></path><path fill="#ffd89b" d="M855.48,497.6h-12.84c-1.74,0-3.17-1.49-3.17-3.31h0c0-1.82,1.43-3.31,3.17-3.31h12.84c1.74,0,3.17,1.49,3.17,3.31h0c0,1.82-1.43,3.31-3.17,3.31Z"></path><path fill="#ff912b" d="M839.25,462.74v-2.38c6.34-.32,6.78-1.03,6.77-5.67v-23.32c0-3.28-1.11-3.54-3.63-3.86l-1.85-.32v-2.13c4.74-.58,10.04-1.87,13.67-3.22v32.85c0,4.77,.37,5.35,6.65,5.67v2.38h-21.62Z"></path></g><g><g><path fill="#ff912b" d="M649.86,729.82s-7.66,13.54-14.68,13.73c-7.02,.19-17.71-6.28-17.71-6.28,0,0-6.45-18.05-2.07-25.11,0,0,4.39-2.42,8.97,1.85,.79,.74,1.59,1.66,2.37,2.86,1.11,1.68,2.36,2.64,3.69,3.14,5.01,1.91,10.96-2.59,13.19,1.76,1.3,2.53,2.71,4.43,3.87,5.76,1.37,1.54,2.37,2.29,2.37,2.29Z"></path><path fill="#ff912b" d="M572.75,781.24c12.73-19.08,30.59-36.97,53.05-37.69,0,0,29.03,4.05,41.75,45.9,5.58,18.37-5.28,38.06-20.93,38.06h-56.49c-19.04,0-29.6-27.95-17.38-46.27Z"></path><path fill="#ffd89b" d="M612.45,746.07s19.54,5.46,25.56,2.25c0,0,.91-10.26-7.32-8.82-5.63,.99-9.3-2.41-11.46-3.79-3.05-1.95-7.6,6.07-6.79,10.36Z"></path></g><g><ellipse fill="#ffd89b" ry="37.89" rx="36.23" cy="803.57" cx="649.31"></ellipse><path fill="#ff912b" d="M654.43,814.81c.1-.84,.07-1.59-.09-2.26-.15-.67-.46-1.29-.91-1.87-.45-.58-1.06-1.14-1.82-1.68-.76-.54-1.7-1.09-2.83-1.66-1.93-.99-3.67-1.99-5.22-3-1.55-1.01-2.85-2.12-3.9-3.32-1.05-1.2-1.82-2.55-2.3-4.05-.49-1.5-.62-3.22-.4-5.18,.19-1.69,.66-3.2,1.39-4.53,.73-1.32,1.69-2.44,2.88-3.34,1.18-.9,2.56-1.59,4.12-2.05,1.56-.46,3.28-.67,5.15-.62l.73-6.4,4.93,.61-.74,6.49c1.74,.46,3.28,1.15,4.64,2.06,1.35,.92,2.47,2.03,3.34,3.33,.87,1.3,1.49,2.79,1.85,4.46,.36,1.67,.43,3.51,.2,5.5l-8.9-1.1c.27-2.39-.03-4.25-.91-5.56-.88-1.31-2.17-2.07-3.88-2.29-.92-.11-1.74-.08-2.43,.11-.7,.19-1.29,.49-1.77,.9-.48,.42-.87,.93-1.14,1.54-.28,.61-.46,1.29-.54,2.03-.08,.74-.06,1.42,.08,2.04,.14,.62,.43,1.22,.87,1.79,.45,.57,1.06,1.13,1.84,1.68,.78,.55,1.76,1.14,2.94,1.78,1.9,1.02,3.62,2.05,5.16,3.07,1.54,1.02,2.83,2.14,3.88,3.35,1.05,1.21,1.82,2.57,2.3,4.06,.49,1.5,.62,3.21,.4,5.15-.2,1.75-.67,3.29-1.41,4.62-.74,1.32-1.71,2.43-2.89,3.31-1.18,.88-2.56,1.54-4.14,1.97-1.58,.43-3.3,.62-5.17,.57l-.68,5.95-4.9-.61,.67-5.92c-1.68-.39-3.29-.98-4.81-1.78-1.52-.8-2.84-1.83-3.94-3.11-1.1-1.28-1.93-2.82-2.47-4.63-.54-1.81-.68-3.91-.41-6.3l8.9,1.1c-.16,1.42-.11,2.62,.17,3.62,.27,.99,.69,1.82,1.27,2.46,.57,.65,1.25,1.14,2.04,1.47s1.6,.55,2.44,.65c.96,.12,1.83,.1,2.58-.07,.76-.17,1.41-.45,1.95-.85,.54-.4,.98-.9,1.29-1.49,.32-.6,.52-1.26,.6-2Z"></path></g></g><g><path fill="#ff7b35" d="M1046.96,739.86c-1.33-1.47-2.75-2.87-4.23-4.19-8.9-7.88-20.41-12.64-32.97-12.64s-24.76,5.06-33.77,13.37h0c-1.33,1.23-2.59,2.53-3.79,3.89-8.4,9.52-13.52,22.23-13.52,36.17v.07c.02,13.91,5.14,26.6,13.52,36.1,9.34,10.61,22.73,17.26,37.57,17.26s27.87-6.47,37.19-16.83c8.61-9.55,13.9-22.41,13.91-36.53v-.07c0-14.15-5.29-27.03-13.91-36.61Zm-37.19,69.35c-9.14,0-17.38-4.11-23.1-10.67-5.09-5.81-8.2-13.54-8.21-22.01v-.07c0-8.5,3.11-16.25,8.21-22.08,.81-.94,1.67-1.81,2.58-2.64,5.5-5,12.68-8.03,20.52-8.03s14.58,2.85,20.01,7.58c.95,.83,1.85,1.71,2.7,2.65,5.33,5.87,8.61,13.8,8.61,22.52v.07c-.02,8.69-3.29,16.59-8.6,22.45-5.71,6.3-13.79,10.23-22.72,10.23Z"></path><path fill="#ffd89b" d="M972.19,812.64c-8.38-9.51-13.51-22.19-13.52-36.1h19.78c.02,8.47,3.13,16.2,8.21,22.01l-14.47,14.09Z"></path><path fill="#ffd89b" d="M1047.28,740.17c8.42,9.45,13.57,22.06,13.58,35.89h-19.87c-.02-8.42-3.14-16.11-8.25-21.88l14.54-14.01Z"></path><path fill="#ffd89b" d="M1044.49,815.63c-9.04,8.8-21.1,14.26-34.33,14.27v-20.78c8.06-.02,15.35-3.3,20.87-8.64l13.46,15.15Z"></path><path fill="#ffd89b" d="M972.67,739.77c8.5-9.37,20.18-15.72,33.38-16.59l1.36,20.64c-8.04,.54-15.21,4.51-20.41,10.2l-14.33-14.24Z"></path></g><g><path fill="#fc7600" d="M857.04,979.97h-175.17c8.12-41.17,42.1-72.44,83.41-74.43,1.38-.07,2.77-.1,4.18-.1,43.17,0,79.2,31.98,87.59,74.53Z"></path><path fill="#ff912b" d="M857.04,979.97h-134.73c5.24-31.81,21.22-58.69,42.97-74.43,1.38-.07,2.77-.1,4.18-.1,43.17,0,79.2,31.98,87.59,74.53Z"></path><path fill="#fc7600" d="M863.65,987.14h-192.28c-1.89,0-3.43-1.61-3.43-3.59h0c0-1.97,1.54-3.59,3.43-3.59h192.28c1.89,0,3.43,1.61,3.43,3.59h0c0,1.97-1.54,3.59-3.43,3.59Z"></path><path fill="#fc7600" d="M767.1,909.21h0c-1.9,0-3.46-1.63-3.46-3.62v-6.94c0-1.99,1.56-3.62,3.46-3.62h0c1.9,0,3.46,1.63,3.46,3.62v6.94c0,1.99-1.56,3.62-3.46,3.62Z"></path></g><g><g><g><path fill="#ff912b" d="M1095.26,938.22s-5.26,7.89-16.31,16.09c-11.11,8.27-28.1,16.87-51.45,18.04-3.79,.19-7.74,.19-11.86-.04,0,0-30-45.04-66.79-48.73,0,0,35.44-40.37,92.88-36.34,0,0,48.82,15.26,53.53,50.98Z"></path><path fill="#fc7600" d="M948.85,923.59s29.43,43.34,66.79,48.73c0,0-29.5-47.02-66.79-48.73Z"></path><path fill="#ff912b" d="M948.85,923.59s-2.61-4.04-11.8-5.33c0,0,5.27,7.8,4.35,9.93,0,0,4.69-.09,7.45-4.59Z"></path><path fill="#dc5c00" d="M937.06,918.25s5.23,2.48,5.55,5.85c.31,3.37-.85,5.52-4.06,2.93-3.2-2.59-3.02-9.03-1.49-8.78Z"></path><path fill="#ff912b" d="M1017.24,971.62s4.95,2.31,6.02,9.61c0,0-9.55-4.64-12.3-4.04,0,0,.4-3.68,6.29-5.57Z"></path><path fill="#dc5c00" d="M1023.25,981.23s-2.81-4.27-7.07-4.73c-4.25-.46-7.05,.33-3.97,3,3.08,2.68,11.26,2.94,11.03,1.72Z"></path><path fill="#ff912b" d="M1043.08,887.69s-1.56-4.14,1.38-4.33c2.94-.19,6.7,2.34,7.55,4.39,.85,2.05-3.48,2.12-3.48,2.12l-5.45-2.18Z"></path><path fill="#ff912b" d="M1094.22,936.91s4.25-2.73,5.6-.67c1.35,2.06-.17,5.77-2.24,7.18-2.07,1.41-4.63-4.7-4.63-4.7l1.26-1.82Z"></path></g><g><path fill="#ffd89b" d="M1037.48,978.7s6.26,5.46,17.2,10.22c11.02,4.81,26.79,8.9,45.67,6.01,3.06-.47,6.21-1.12,9.43-1.98,0,0,12.04-41.02,40.34-50.02,0,0-38.8-26.54-83.45-13.88,0,0-34.83,20.25-29.2,49.65Z"></path><path fill="#f8c585" d="M1150.13,942.93s-12.03,39.57-40.34,50.03c0,0,11.12-42.53,40.34-50.03Z"></path><path fill="#ffd89b" d="M1150.13,942.93s1.02-3.67,7.99-6.21c0,0-2.15,7.11-.85,8.67,0,0-3.75,.7-7.13-2.46Z"></path><path fill="#f8c585" d="M1158.11,936.72s-3.51,2.85-2.88,5.6c.64,2.75,2.13,4.28,4,1.68,1.87-2.6,.03-7.74-1.12-7.28Z"></path><path fill="#ffd89b" d="M1108.34,992.66s-3.34,2.66-2.26,8.69c0,0,6.38-5.28,8.73-5.26,0,0-1.29-2.88-6.46-3.43Z"></path><path fill="#f8c585" d="M1106.07,1001.35s1.12-3.88,4.38-4.95c3.26-1.07,5.69-.9,3.95,1.76-1.75,2.65-8.18,4.21-8.33,3.19Z"></path><path fill="#ffd89b" d="M1065.73,929.63s.15-3.57-2.23-3.24c-2.39,.33-4.71,2.98-4.86,4.76-.14,1.78,3.33,1.13,3.33,1.13l3.76-2.64Z"></path><path fill="#ffd89b" d="M1037.97,977.47s-4.1-1.49-4.63,.39c-.53,1.87,1.65,4.6,3.67,5.39,2.02,.79,2.45-4.52,2.45-4.52l-1.48-1.25Z"></path></g></g><path fill="#ff912b" d="M1069.11,966.77l6.11-13.96-8.91,2.69-.93-3.37,13.64-4.12,.81,2.92-6.11,13.96,9.2-2.78,.93,3.37-13.92,4.2-.81-2.92Z"></path><path fill="#ff912b" d="M1087.24,948.33l8.53-8.18-7.26-.91,.31-2.75,11.11,1.39-.27,2.38-8.53,8.18,7.49,.93-.31,2.75-11.34-1.41,.27-2.38Z"></path><path fill="#ff912b" d="M1097.51,920.25l2-9.77-5.3,3.02-1.04-2,8.11-4.61,.9,1.74-2,9.76,5.47-3.11,1.04,2-8.28,4.71-.9-1.74Z"></path></g><g><path fill="#ff912b" d="M324.8,784.4c.14,.27,.3,.55,.45,.84,3.6,6.55,11.87,22.61,20.98,40.17,4.31,8.33,8.82,17.01,13.1,25.18,7.37,14.09,14.08,26.64,17.99,33.27,3.98,6.74,6.91,11.48,8.1,13.37h0c.36,.59,.43,1.28,.39,1.97-.41,5.95-.3,11.85,.26,17.67,5.49,57.16,42.35,87.79,42.35,87.79l10.96,1.69s-15.51-60.08-20.08-94.04c-.77-5.76-1.11-10.42-.84-13.47,.81-8.85-.69-21.84-3.54-36.76-5.06-26.51-14.34-59.04-22.41-85.08-.51-1.66-15.92-59.96-15.92-59.96-12.93,11.82-60.12,16.7-60.12,16.7,0,0-8,20.34,8.31,50.67Z"></path><path fill="#1e3865" d="M462.4,1020.84h-45.74s-1.1-7.29,1.29-12.82c2.29-5.31,5.55-5.48,.42-13.79,2.91,3.13,12.25,4.42,18.86,3.49,.81,1.37,5.22,10.59,7.93,12.62,2.99,2.25,16.32,1.45,17.24,10.5Z"></path><path fill="#fc7600" d="M324.8,784.4c.14,.27,.3,.55,.45,.84,3.6,6.55,23.1,44.21,32.21,61.77-10.55-45.4-3.21-90.81-3.21-90.81l-29.45,28.2Z"></path><path fill="#2a3967" d="M495.1,557.22c.3-1.26-26.12,12.49-27.46,14.04-12.39,14.37-8.86,33.13-1.77,33.31,4.55,.12,3.67,8.02,3.67,8.02l50.66-22.41s-6.1-37.19-25.1-32.96Z"></path><path fill="#fddbba" d="M478.07,648.5s7.71,16.1,6.75,29.17c0,0-9.3,15.34-33.41,19.23,0,0,20.73-48.41,26.66-48.4Z"></path><path fill="#ff912b" d="M360.46,737.3l.15-8.95c-17.04,2.25-58.77-21.3-58.77-21.3,0,0-17.83,12.4-20.27,47.82-1.19,17.29-8.73,90.39-9.56,112.22-.3,7.91-.4,13.56-.44,15.81,0,.01,0,.02,0,.02-.01,.69-.32,1.3-.72,1.84-3.53,4.69-6.59,9.65-9.24,14.8-26.01,50.6-12.41,119.35-12.41,119.35l6.04-1.61s21.99-71.27,36.36-102.1c2.44-5.23,4.66-9.3,6.51-11.65,5.4-6.86,11.1-18.52,16.72-32.55,10.62-26.52,45.62-133.72,45.62-133.72Z"></path><path fill="#1e3865" d="M285.58,1020.84h-45.74s-1.1-7.29,1.29-12.82c2.29-5.31,5.87-7.72,5.02-14.14,2.91,3.13,7.64,6.63,14.26,5.7,.81,1.37,5.23,8.72,7.94,10.76,2.99,2.25,16.32,1.45,17.24,10.5Z"></path><path fill="#fddbba" d="M448.33,707.17c-6.14,1.1,1,6.2-7.45,7.16-12.03,1.37-24.44,2.31-30.95,5.02-2.37,.99-3.96,2.21-4.45,3.77-2.82,8.87-20.68,24.1-20.68,24.1-79.64-3.79-84.77-40.91-84.77-40.91,51.69-52.49,95.66-81.11,132.01-84.65,8.85-.86,20.77,.3,26.36,2.9,12.71,5.92,19.68,23.92,19.68,23.92,0,0-6.4,54.51-29.75,58.67Z"></path><path fill="#f8caa4" d="M440.88,714.33c-12.03,1.37-24.44,2.31-30.95,5.02-2.66-41.54,16.09-72.78,16.09-72.78,0,0,12.23,52.04,14.86,67.75Z"></path><path fill="#ffae73" d="M451.26,639.55s-30.24-1.73-35.62,18.13c-5.37,19.86,10.08,99.11,13.41,107.29,6.06,14.89,35.59,57.4,35.59,57.4l10.86-3.46s-19.68-64.93-24.08-71.36c-6.9-10.09,8.89-99.36-.16-108Z"></path><path fill="#ffae73" d="M475.49,818.91s.56,5.03,2.59,7.63c2.03,2.6,7.95,8.89,8.06,12.57,0,0-.3,1.63-1.57,1.34-1.27-.3-5.68-4.86-7.94-4.54,0,0,1.21,7.38,2.4,9.46,1.2,2.08,2.71,9.03,1.99,10.82-.72,1.79-12.25-6.05-15.64-12.86-2.8-5.64-.06-25.8-.06-25.8l10.15,1.38Z"></path><path fill="#fddbba" d="M409.67,684.23c.08,.47,28.62,5.49,46.47-3.98,0,0,14.91-48.85-6.4-46.52-21.31,2.34-33.93,9.36-34.47,20.03-.54,10.67-5.6,30.48-5.6,30.48Z"></path><path fill="#ffae73" d="M457.5,627.29c1.97,6.67,9.71,29.66,20.57,21.21-.36-1.58,1.85-6.19,4.45-10.86,3.33-5.98,7.29-12.08,7.29-12.08l-17.12-15.68-1.02-.94c-4.69,8.57-9.3,12.48-13.29,15.54-.84,.64-1.19,1.77-.89,2.81Z"></path><path fill="#f99352" d="M489.81,625.56s-3.96,6.09-7.28,12.08c-10.64-6.86-10.65-20.63-9.83-27.77l17.11,15.69Z"></path><path fill="#ffae73" d="M490.29,633.41s-25.83-15.03-16.63-31.71c9.2-16.68,12.06-29.85,28.94-20.96,16.88,8.89,16.55,17.17,14.77,23.52-1.78,6.35-20.13,32.63-27.08,29.15Z"></path><path fill="#2a3967" d="M521.73,594.54c-1.18-7.41-4.78-8.11-7.29-7.62-9.54-16.5-25.13-10.06-25.13-10.06-8.33,10.93-20.36,12.79-20.36,12.79,0,0,3,5.83,15.35,9.44,3.77,1.1,8.06,.43,12.19-1.02-8.57,5-17.53,6.91-17.53,6.91,16.28,1.56,31.76-14,33.37-15.67,.75,2.41,2.07,7.46,1.28,11.15-1.07,5.02-5.33,14.1-2.73,15.28,0,0,12.63-10.1,10.85-21.21Z"></path><path fill="#2a3967" d="M495.1,557.22s.81-10.94-10.19-14.29c-21.25-6.48-22.36,13.96-30.05,19.83-9.38,7.16-12.41,20.52,5.13,24.04,17.54,3.52,18.09-8.91,18.09-8.91l17.02-20.66Z"></path></g><path fill="#2d3554" d="M30.8,1020.49H1818.78c1.67,0,3.02,1.35,3.02,3.02v1.47c0,1.67-1.35,3.02-3.02,3.02H30.8c-1.67,0-3.02-1.35-3.02-3.02v-1.47c0-1.67,1.35-3.02,3.02-3.02Z"></path><g><path fill="#ffae73" d="M1291.92,633.72c-1.23-.91-2.18-2.92-3.44-4.43-.94-1.12-7.53-2.59-7.53-2.59,0,0,1.23,2.26,3.11,4.65-3.72-1.45-7.98-2.31-16.91-.51-1.79,.36-3.41,1.42-4.39,3.02-.91,1.48-1.25,3.34,1.03,4.82,4.56,2.96,3.24,1.19,9.57,5.5,6.33,4.31,14.09,5.42,18.72,2.39l6.22-1.08,.77-10.69s-3.54-.44-7.14-1.07Z"></path><path fill="#ffae73" d="M1454.82,544.04s-14.66,18.18-33.32,10.58c0,0-4.01-10.15-4.07-17.64,0-.92-.02-1.81-.03-2.66-.1-8.43-.37-13.16-.37-13.16h.02c.85-.37,28.53-12.26,28.51-11.27-.48,22.8,9.27,34.16,9.27,34.16Z"></path><path fill="#f9924f" d="M1442.78,515.32c-2.67,5.17-11.83,15.3-25.38,18.99-.1-8.43-.37-13.16-.37-13.16h.02c.77-.22,26.52-7.36,25.73-5.84Z"></path><path fill="#ffae73" d="M1411.23,520.28s31.13,7.65,35.39-12.69c4.26-20.34,11.15-33.06-8.55-38.81-19.7-5.75-25.2,1.13-28.2,7.56-3,6.43-6.63,41.42,1.36,43.94Z"></path><path fill="#b53c37" d="M1445.56,513.13c.42,.28,7.12,2.44,19.81-23.99,1.99-4.15,3.35-13.12-1.29-21.05-4.64-7.93-21.1-14.16-34.78-16.88-13.68-2.71-16.96,5.33-20.18,13.42-3.38,8.49-13.14,15.48-13.14,15.48,11.79,6.89,26-2.96,30.92-1.34,4.92,1.62,6.66,9.73,7.03,12.33,.37,2.6,.94,4.76,7.12,2.44,6.19-2.32,2.8,9.17,1.81,11.37,0,0-.84,5.85,2.71,8.23Z"></path><g><path fill="#2a3967" d="M1525.75,1020.49h18.85c3.95,0,8.34-4.14,9.44-11.71,1.1-7.58,9.22-11.71,10.98-17.91,1.76-6.2-7.25-14.93-7.25-14.93l-1.51-2.02-1.57-2.11-14.93,3.67s-.37,3.72-.6,8.45c-.16,3.42-.25,7.37-.06,10.84,.44,8.27-2.21,17.17-9.24,18.78-7.03,1.61-4.12,6.94-4.12,6.94Z"></path><path fill="#2a3967" d="M1394.53,1020.49h49.97c.48-.1,.84-.21,1.06-.32,3.34-1.75,2.29-15.1,1.89-19.23-.08-.76-.13-1.21-.13-1.21,0,0-17.57-14.69-19.99-3.44-.08,.35-.17,.7-.26,1.03h0c-3.05,10.53-16.68,15.31-24.56,16.65-6.02,1.02-7.58,4.69-7.98,6.52Z"></path><path fill="#ff912b" d="M1404.6,719.2s2.67,34.81,5.8,76.66c4.26,56.84,9.39,126.67,9.9,139.9,.88,22.97,4.39,59.71,4.39,59.71,0,0,8.34,8.73,25.04,5.05,0,0,14.88-52.45,19.13-107.94,.07-.91,.13-1.83,.2-2.74,3.95-56.49,10.1-175.45,10.1-175.45l-74.55,4.82Z"></path><path fill="#fc7600" d="M1404.6,719.2s2.67,34.81,5.8,76.66l58.45,96.71c.07-.91,.13-1.83,.2-2.74,3.95-56.49,10.1-175.45,10.1-175.45l-74.55,4.82Z"></path><path fill="#ff912b" d="M1416.78,723.33s48.1,126.07,79.72,185.32c31.62,59.25,41.51,75.78,41.51,75.78,0,0,18.12-7.58,19.77-12.75,0,0-12.09-114.38-33.27-142.26-11.97-15.76-26.02-63.04-26.68-79.57-.66-16.53-4.28-49.26-4.28-49.26l-76.75,22.73Z"></path></g><path fill="#ffae73" d="M1526.47,700.43l.51,8.11s-5.11,14.4,9.21,21.79c0,0,6.13,2.59,6.38-2.41,.25-4.99-.54-3.12-.04-10.15,.5-7.03-2.14-13.68-6.59-15.91l-3.65-4.4-5.83,2.97Z"></path><path fill="#8eaff1" d="M1532.06,706.33c-5.32,1.79-6.18,1.38-6.18,1.38,0,0-25.91-49.33-28.54-53.84-2.62-4.52-55.01-55.32-55.01-55.32l13.46-52.5s59.58,80.68,66.02,92.26c10.63,19.13,16.86,63.56,16.86,63.56,0,0-2.44,3.04-6.62,4.45Z"></path><path fill="#a9c2ff" d="M1394.44,619.16c.19,10.78,.79,22.9,1.59,35.21,.05,.73,.1,1.46,.15,2.19,.52,7.63,1.08,15.27,1.72,22.72,.26,2.99,.53,5.94,.82,8.84l.04,.39c.02,1.09,.15,2.26,.26,3.34,2.63,27.92,5.38,49.97,5.89,50.31,.61,.43,1.3,.64,2.05,.55,7-.92,27.89,.74,44.99-3.15,14.43-3.18,26.86-9.22,40.02-17.35,1.75-1.08,5.73-3.94,5.41-6.08-.32-2.35-.91-5.75-1.65-10.02-2.59-14.85-7.07-40.39-8.6-70.29-.3-5.57-.73-11.07-1.29-16.48-1.47-14.08-3.82-27.46-6.97-39.35-5.86-22.08-14.48-38.99-25.29-45.6-1.41-.83-9.01,4.23-15.99,8.91-6.45,4.32-13.23,5.52-19.83,4.91l-5.81,6.72c-7.03,8.55-14.52,19.93-16.57,36.12-.15,1.19-.29,2.47-.4,3.82-.57,6.59-.7,14.94-.54,24.28Z"></path><path fill="#8eaff1" d="M1394.44,619.16c.19,10.78,.79,22.9,1.59,35.21,.05,.73,.1,1.46,.15,2.19,39.99-26.18,46.15-74.07,46.15-74.07-19.67,.9-35.3,5.63-47.35,12.4-.57,6.59-.7,14.94-.54,24.28Z"></path><path fill="#a9c2ff" d="M1293.4,639.78c-.41-6.2,2.66-7.23,2.66-7.23,0,0,60.3-11.43,65.42-13.11,5.13-1.69,48.96-49.36,48.96-49.36,0,0,16.8-19.81,30.56-15.44,11.95,3.8,16.63,13.55,18.22,22.84,1.9,11.07-2.98,22.21-12.15,28.09-20.58,13.2-61.77,39.2-71.47,42.17-21.59,6.62-79.61,.53-79.61,.53,0,0-2.25-3.61-2.58-8.48Z"></path></g></g></g></g></svg>